<svg xmlns="http://www.w3.org/2000/svg" xmlns:xlink="http://www.w3.org/1999/xlink" width="48" height="48" viewBox="0 0 48 48">
    <defs>
        <path id="a" d="M29.49 35.56c0-2.032.55-3.668 1.656-4.909 1.103-1.244 2.537-1.863 4.295-1.863 1.759 0 3.2.619 4.328 1.863 1.128 1.24 1.693 2.877 1.693 4.91 0 1.94-.565 3.534-1.693 4.771-1.127 1.242-2.57 1.865-4.328 1.865-1.758 0-3.192-.623-4.295-1.865-1.105-1.237-1.655-2.832-1.655-4.772zM6.902 16.085c-1.127-1.24-1.692-2.831-1.692-4.773 0-2.033.553-3.67 1.655-4.915C7.97 5.16 9.4 4.54 11.159 4.54c1.759 0 3.2.62 4.332 1.857 1.124 1.244 1.689 2.882 1.689 4.915 0 1.942-.565 3.533-1.69 4.773-1.13 1.245-2.572 1.863-4.33 1.863-1.714 0-3.131-.618-4.259-1.863zM46.667 35.56c0-3.205-1.045-5.893-3.144-8.061-2.099-2.166-4.791-3.25-8.082-3.25-3.29 0-5.975 1.069-8.049 3.218-2.073 2.145-3.11 4.841-3.11 8.093 0 3.205 1.037 5.856 3.11 7.958 2.074 2.102 4.759 3.149 8.05 3.149 3.29 0 5.982-1.047 8.08-3.149 2.1-2.102 3.145-4.753 3.145-7.958zM40.174.677h-4.531L6.832 45.854h4.463L40.174.677zM19.31 19.267c2.1-2.098 3.144-4.75 3.144-7.955 0-3.25-1.045-5.954-3.144-8.094C17.213 1.071 14.495 0 11.16 0 7.868 0 5.183 1.07 3.115 3.218 1.037 5.358 0 8.062 0 11.312c0 3.205 1.037 5.857 3.116 7.956 2.068 2.104 4.753 3.148 8.043 3.148 3.336 0 6.054-1.044 8.151-3.148z"/>
    </defs>
    <g fill="none" fill-rule="evenodd">
        <path d="M-6-6h60v60H-6z"/>
        <g transform="translate(.667 .667)">
            <mask id="b" fill="#fff">
                <use xlink:href="#a"/>
            </mask>
            <use fill="#00B2A9" xlink:href="#a"/>
            <g fill="#00B2A9" mask="url(#b)">
                <path d="M-6.667-6.667h60v60h-60z"/>
            </g>
        </g>
    </g>
</svg>