<svg xmlns="http://www.w3.org/2000/svg" xmlns:xlink="http://www.w3.org/1999/xlink" width="40" height="57" viewBox="0 0 40 57">
    <defs>
        <path id="a" d="M15.611 26.745l-3.007-2.934a1.885 1.885 0 0 1 0-2.7 1.997 1.997 0 0 1 2.765-.001l1.413 1.382 7.671-9.985a1.989 1.989 0 0 1 2.734-.38c.42.307.689.753.764 1.255a1.86 1.86 0 0 1-.373 1.418l-9.022 11.744c-.339.44-.857.716-1.42.76l-.142.004a1.971 1.971 0 0 1-1.383-.563zM20 0C31.03 0 40 8.761 40 19.524c0 7.194-4.027 13.752-10.527 17.182v18.053c0 .73-.433 1.403-1.104 1.717-.27.125-.557.19-.85.19-.444 0-.875-.145-1.22-.414l-6.3-4.92-6.3 4.917a1.976 1.976 0 0 1-1.216.418c-.292 0-.588-.066-.853-.191a1.907 1.907 0 0 1-1.103-1.717V36.706C4.027 33.276 0 26.718 0 19.524 0 8.761 8.97 0 20 0zm0 3.817c-8.87 0-16.088 7.046-16.088 15.707 0 8.663 7.218 15.71 16.088 15.71 8.872 0 16.09-7.047 16.09-15.71 0-8.661-7.218-15.707-16.09-15.707zm-1.223 43.58c.346-.271.78-.42 1.222-.42a2 2 0 0 1 1.223.42l4.34 3.392V38.273a20.253 20.253 0 0 1-11.123 0v12.514l4.338-3.39z"/>
    </defs>
    <g fill="none" fill-rule="evenodd">
        <path d="M-10 0h60v60h-60z"/>
        <g>
            <mask id="b" fill="#fff">
                <use xlink:href="#a"/>
            </mask>
            <g fill="#00B2A9" mask="url(#b)">
                <path d="M-10 0h60v60h-60z"/>
            </g>
        </g>
    </g>
</svg>