<svg xmlns="http://www.w3.org/2000/svg" xmlns:xlink="http://www.w3.org/1999/xlink" width="54" height="44" viewBox="0 0 54 44">
    <defs>
        <path id="a" d="M46.298 11.153V1.798a1.864 1.864 0 0 0-.889-1.497A2.08 2.08 0 0 0 44.327 0c-.187 0-.378.025-.597.084l-22 8.712H10.84a6.436 6.436 0 0 0-5.384 3.13l-.746.29C1.886 13.189-.006 15.83 0 18.789a6.806 6.806 0 0 0 4.67 6.516l.407.17a6.455 6.455 0 0 0 2.733 2.989l2.886 10.36a6.065 6.065 0 0 0 2.89 3.699c.93.53 1.985.81 3.048.81.541 0 1.09-.072 1.631-.214a6.217 6.217 0 0 0 3.317-2.245 6.318 6.318 0 0 0 .997-5.403l-1.773-6.463.814-.014 22.176 8.922.429.119.136.02.035-.002c.293-.026.672-.078.981-.247.546-.298.89-.85.92-1.491v-9.88c3.969-.347 7.036-3.652 7.036-7.642 0-3.989-3.067-7.292-7.035-7.64zm0 11.668v-8.054c1.944.331 3.426 2.041 3.426 4.026 0 1.988-1.482 3.699-3.426 4.028zM42.686 4.502v29.14l-18.74-7.434V11.941l18.74-7.439zm-32.07 20.942c-1.224 0-2.237-.989-2.307-2.264-.004-.061-.004-.113-.004-.174V15.11a2.616 2.616 0 0 1 .716-1.896 2.642 2.642 0 0 1 1.84-.835h9.477v13.055h-9.53a2.134 2.134 0 0 1-.191.009zm3.532 12.301l-2.393-8.731h5.333l1.988 7.382c.235.79.09 1.626-.392 2.286-.466.625-1.211.999-2.05.999a2.64 2.64 0 0 1-2.486-1.936zm-9.457-21.38v4.856c-.657-.61-1.02-1.496-.97-2.466a3.026 3.026 0 0 1 .97-2.39z"/>
    </defs>
    <g fill="none" fill-rule="evenodd">
        <path d="M-3-10h60v60H-3z"/>
        <g transform="translate(.333)">
            <mask id="b" fill="#fff">
                <use xlink:href="#a"/>
            </mask>
            <use fill="#00B2A9" xlink:href="#a"/>
            <g fill="#00B2A9" mask="url(#b)">
                <path d="M-3.333-10h60v60h-60z"/>
            </g>
        </g>
    </g>
</svg>