<svg xmlns="http://www.w3.org/2000/svg" xmlns:xlink="http://www.w3.org/1999/xlink" width="48" height="44" viewBox="0 0 48 44">
    <defs>
        <path id="a" d="M48.277 39.766c0 2.752-2.156 4.983-4.806 4.985-2.651 0-4.801-2.233-4.801-4.985 0-2.75 2.15-4.985 4.8-4.985 2.657 0 4.807 2.234 4.807 4.985M34.802 16.9c0 2.752-2.147 4.981-4.8 4.981s-4.806-2.229-4.806-4.981c0-2.755 2.15-4.987 4.806-4.987 2.653 0 4.8 2.232 4.8 4.987M23.64 32.7l3.56-6.037c.895.273 1.821.467 2.802.467.978.004 1.906-.194 2.8-.467l3.562 6.037c-1.137 1.222-1.952 2.75-2.388 4.446h-7.952c-.434-1.696-1.253-3.218-2.384-4.446m-2.306 7.065c0 2.752-2.152 4.985-4.806 4.983-2.651.002-4.801-2.23-4.801-4.983 0-2.75 2.15-4.985 4.8-4.985 2.655 0 4.807 2.234 4.807 4.985m32 0c0-5.65-4.415-10.234-9.863-10.234-.972 0-1.894.19-2.78.461l-3.572-6.04a10.375 10.375 0 0 0 2.746-7.052c0-5.654-4.418-10.234-9.863-10.234-5.449 0-9.863 4.58-9.863 10.234a10.39 10.39 0 0 0 2.742 7.052l-3.572 6.04c-.884-.271-1.808-.461-2.781-.461-5.444 0-9.861 4.584-9.861 10.234S11.084 50 16.527 50c4.57 0 8.375-3.242 9.497-7.615h7.952C35.098 46.758 38.9 50 43.471 50c5.448 0 9.862-4.584 9.862-10.234"/>
    </defs>
    <g fill="none" fill-rule="evenodd">
        <path d="M-6-6h60v60H-6z"/>
        <g transform="translate(-6 -6)">
            <mask id="b" fill="#fff">
                <use xlink:href="#a"/>
            </mask>
            <g fill="#00B2A9" mask="url(#b)">
                <path d="M0 0h60v60H0z"/>
            </g>
        </g>
    </g>
</svg>