<svg xmlns="http://www.w3.org/2000/svg" xmlns:xlink="http://www.w3.org/1999/xlink" width="48" height="51" viewBox="0 0 48 51">
    <defs>
        <path id="a" d="M38.38 31.868c0 3.274-2.645 6.138-7.74 6.138-2.384 0-4.472-.721-5.52-1.383l.787-2.14c.816.504 2.71 1.29 4.702 1.29 3.691 0 4.835-2.266 4.799-3.968-.034-2.867-2.71-4.092-5.487-4.092h-1.599v-2.079h1.6c2.091 0 4.735-1.042 4.735-3.464 0-1.64-1.077-3.088-3.721-3.088-1.699 0-3.334.727-4.247 1.355l-.752-2.014c1.11-.788 3.268-1.577 5.555-1.577 4.177 0 6.072 2.395 6.072 4.884 0 2.109-1.308 3.904-3.921 4.815v.064c2.613.503 4.738 2.393 4.738 5.26zM17.334 26.75h6.03v2.912h-6.03v5.812H14.32v-5.812H8.286V26.75h6.033v-5.814h3.014v5.814zm6.003 20.756c-11.5 0-20.826-8.991-20.826-20.079 0-11.092 9.326-20.08 20.826-20.08s20.822 8.988 20.822 20.08c0 11.088-9.322 20.079-20.822 20.079zM41.482 4.998H38.89V0h-5.187v4.998H12.961V0H7.78v4.998H5.183C2.32 4.998 0 7.238 0 9.998v35.004C0 47.762 2.32 50 5.183 50h36.3c2.867 0 5.184-2.238 5.184-4.998V10c0-2.762-2.317-5.001-5.185-5.001z"/>
    </defs>
    <g fill="none" fill-rule="evenodd">
        <path d="M-6-3h60v60H-6z"/>
        <g transform="translate(.667 .333)">
            <mask id="b" fill="#fff">
                <use xlink:href="#a"/>
            </mask>
            <g fill="#00B2A9" mask="url(#b)">
                <path d="M-6.667-3.333h60v60h-60z"/>
            </g>
        </g>
    </g>
</svg>