<?xml version="1.0" encoding="utf-8"?>
<!-- Generator: Adobe Illustrator 21.1.0, SVG Export Plug-In . SVG Version: 6.00 Build 0)  -->
<svg version="1.1" id="Layer_1" xmlns="http://www.w3.org/2000/svg" xmlns:xlink="http://www.w3.org/1999/xlink" x="0px" y="0px"
	 viewBox="0 0 179 29" style="enable-background:new 0 0 179 29;" xml:space="preserve">
<style type="text/css">
	.st0{fill:#FF5000;}
	.st1{fill:#FFFFFF;}
</style>
<g>
	<path class="st0" d="M23.651,1.2H10.377c-2.572,0-4.664,2.092-4.664,4.664v2.458c0,0.759,0.615,1.373,1.373,1.373
		S8.46,9.08,8.46,8.322V5.864c0-1.057,0.86-1.917,1.917-1.917h13.275c1.057,0,1.917,0.86,1.917,1.917v17.272
		c0,0.684-0.368,1.321-0.962,1.662c-0.29,0.167-0.62,0.255-0.955,0.255c-0.338,0-0.672-0.09-0.964-0.26l-4.982-2.9
		c-0.427-0.249-0.955-0.249-1.382,0l-4.982,2.9c-0.293,0.17-0.626,0.26-0.964,0.26c-0.335,0-0.665-0.088-0.956-0.255
		C8.828,24.457,8.46,23.82,8.46,23.136v-3.957l4.242,1.493c0.125,0.044,0.264,0.024,0.372-0.054c0.108-0.078,0.17-0.204,0.167-0.336
		c-0.005-0.258-0.069-1.569-0.797-2.016L8.46,15.817v-2.723c0-0.759-0.615-1.373-1.373-1.373s-1.373,0.615-1.373,1.373l-0.001,2.722
		l-3.986,2.449c-0.728,0.447-0.791,1.758-0.797,2.016c-0.003,0.133,0.06,0.259,0.167,0.336c0.108,0.078,0.247,0.098,0.372,0.054
		l4.243-1.493l0.001,3.958c0,1.665,0.896,3.214,2.339,4.043c0.706,0.406,1.51,0.621,2.325,0.621c0.823,0,1.635-0.219,2.346-0.633
		l4.291-2.498l4.291,2.498c0.711,0.414,1.523,0.633,2.346,0.633c0.815,0,1.619-0.215,2.325-0.621
		c1.443-0.83,2.339-2.379,2.339-4.043V5.864C28.315,3.292,26.223,1.2,23.651,1.2z"/>
	<g>
		<path class="st1" d="M39.516,10.953h-2.495c-0.192,0-0.331-0.157-0.331-0.332V8.719c0-0.175,0.14-0.332,0.331-0.332h7.748
			c0.192,0,0.331,0.157,0.331,0.332v1.902c0,0.175-0.14,0.332-0.331,0.332h-2.495v9.319c0,0.174-0.157,0.331-0.332,0.331h-2.094
			c-0.175,0-0.332-0.157-0.332-0.331V10.953z"/>
		<path class="st1" d="M46.845,8.719c0-0.175,0.14-0.332,0.331-0.332h5.218c2.094,0,3.804,1.693,3.804,3.77
			c0,1.605-1.064,2.897-2.583,3.508l2.391,4.433c0.122,0.227,0,0.506-0.297,0.506h-2.321c-0.14,0-0.244-0.087-0.279-0.157
			l-2.321-4.625h-1.204v4.45c0,0.174-0.157,0.331-0.331,0.331h-2.077c-0.192,0-0.331-0.157-0.331-0.331V8.719z M52.168,13.605
			c0.715,0,1.326-0.663,1.326-1.396s-0.611-1.326-1.326-1.326h-2.583v2.722H52.168z"/>
		<path class="st1" d="M56.966,20.149l5.462-11.745c0.052-0.105,0.174-0.192,0.297-0.192H62.9c0.122,0,0.244,0.087,0.297,0.192
			l5.462,11.745c0.105,0.227-0.035,0.454-0.297,0.454h-1.937c-0.314,0-0.454-0.105-0.611-0.436l-0.628-1.379h-4.747l-0.628,1.396
			c-0.087,0.209-0.279,0.419-0.628,0.419h-1.92C57.001,20.603,56.862,20.376,56.966,20.149z M64.139,16.415l-1.326-2.88h-0.018
			l-1.309,2.88H64.139z"/>
		<path class="st1" d="M66.424,8.841c-0.105-0.227,0.035-0.454,0.297-0.454h2.321c0.14,0,0.262,0.105,0.297,0.192l2.879,6.37h0.105
			l2.879-6.37c0.035-0.087,0.157-0.192,0.297-0.192h2.321c0.262,0,0.401,0.227,0.297,0.454l-5.48,11.745
			c-0.052,0.105-0.157,0.192-0.297,0.192h-0.174c-0.14,0-0.244-0.087-0.297-0.192L66.424,8.841z"/>
		<path class="st1" d="M79.547,8.719c0-0.175,0.14-0.332,0.331-0.332h7.225c0.192,0,0.331,0.157,0.331,0.332v1.902
			c0,0.175-0.14,0.332-0.331,0.332h-4.834v2.164h3.979c0.174,0,0.331,0.157,0.331,0.332v1.902c0,0.192-0.157,0.332-0.331,0.332
			h-3.979v2.356h4.834c0.192,0,0.331,0.157,0.331,0.331v1.902c0,0.174-0.14,0.331-0.331,0.331h-7.225
			c-0.192,0-0.331-0.157-0.331-0.331V8.719z"/>
		<path class="st1" d="M89.773,8.719c0-0.175,0.14-0.332,0.331-0.332h2.077c0.175,0,0.332,0.157,0.332,0.332v9.319h4.153
			c0.192,0,0.331,0.157,0.331,0.331v1.902c0,0.174-0.14,0.331-0.331,0.331h-6.562c-0.192,0-0.331-0.157-0.331-0.331V8.719z"/>
		<path class="st1" d="M107.956,8.213c1.745,0,3.036,0.541,4.223,1.623c0.157,0.14,0.157,0.349,0.017,0.489l-1.361,1.413
			c-0.122,0.122-0.314,0.122-0.436,0c-0.646-0.576-1.501-0.89-2.356-0.89c-1.972,0-3.42,1.64-3.42,3.595
			c0,1.937,1.466,3.543,3.438,3.543c0.82,0,1.71-0.297,2.338-0.838c0.122-0.105,0.349-0.105,0.454,0.017l1.361,1.449
			c0.122,0.122,0.105,0.349-0.018,0.471c-1.187,1.152-2.687,1.693-4.24,1.693c-3.49,0-6.3-2.775-6.3-6.265
			C101.656,11.022,104.466,8.213,107.956,8.213z"/>
		<path class="st1" d="M114.29,8.719c0-0.175,0.157-0.332,0.331-0.332h2.077c0.192,0,0.331,0.157,0.331,0.332v4.398h4.991V8.719
			c0-0.175,0.14-0.332,0.332-0.332h2.077c0.174,0,0.331,0.157,0.331,0.332v11.553c0,0.174-0.157,0.331-0.331,0.331h-2.077
			c-0.192,0-0.332-0.157-0.332-0.331v-4.59h-4.991v4.59c0,0.174-0.14,0.331-0.331,0.331h-2.077c-0.174,0-0.331-0.157-0.331-0.331
			V8.719z"/>
		<path class="st1" d="M126.191,20.149l5.462-11.745c0.052-0.105,0.174-0.192,0.297-0.192h0.175c0.122,0,0.244,0.087,0.297,0.192
			l5.462,11.745c0.105,0.227-0.035,0.454-0.297,0.454h-1.937c-0.314,0-0.454-0.105-0.611-0.436l-0.628-1.379h-4.747l-0.628,1.396
			c-0.087,0.209-0.279,0.419-0.628,0.419h-1.92C126.226,20.603,126.086,20.376,126.191,20.149z M133.363,16.415l-1.326-2.88h-0.018
			l-1.309,2.88H133.363z"/>
		<path class="st1" d="M139.313,8.719c0-0.175,0.14-0.332,0.331-0.332h4.206c2.146,0,3.909,1.745,3.909,3.857
			c0,2.164-1.763,3.927-3.892,3.927h-1.833v4.101c0,0.174-0.157,0.331-0.331,0.331h-2.059c-0.192,0-0.331-0.157-0.331-0.331V8.719z
			 M143.694,13.623c0.751,0,1.379-0.593,1.379-1.379c0-0.733-0.628-1.291-1.379-1.291h-1.658v2.67H143.694z"/>
		<path class="st1" d="M151.162,10.953h-2.495c-0.192,0-0.331-0.157-0.331-0.332V8.719c0-0.175,0.14-0.332,0.331-0.332h7.748
			c0.192,0,0.331,0.157,0.331,0.332v1.902c0,0.175-0.14,0.332-0.331,0.332h-2.495v9.319c0,0.174-0.157,0.331-0.332,0.331h-2.094
			c-0.175,0-0.332-0.157-0.332-0.331V10.953z"/>
		<path class="st1" d="M158.491,8.719c0-0.175,0.14-0.332,0.331-0.332h7.225c0.192,0,0.331,0.157,0.331,0.332v1.902
			c0,0.175-0.14,0.332-0.331,0.332h-4.834v2.164h3.979c0.174,0,0.331,0.157,0.331,0.332v1.902c0,0.192-0.157,0.332-0.331,0.332
			h-3.979v2.356h4.834c0.192,0,0.331,0.157,0.331,0.331v1.902c0,0.174-0.14,0.331-0.331,0.331h-7.225
			c-0.192,0-0.331-0.157-0.331-0.331V8.719z"/>
		<path class="st1" d="M168.717,8.719c0-0.175,0.14-0.332,0.331-0.332h5.218c2.094,0,3.804,1.693,3.804,3.77
			c0,1.605-1.064,2.897-2.583,3.508l2.391,4.433c0.122,0.227,0,0.506-0.297,0.506h-2.321c-0.14,0-0.244-0.087-0.279-0.157
			l-2.321-4.625h-1.204v4.45c0,0.174-0.157,0.331-0.332,0.331h-2.077c-0.192,0-0.331-0.157-0.331-0.331V8.719z M174.04,13.605
			c0.715,0,1.326-0.663,1.326-1.396s-0.611-1.326-1.326-1.326h-2.583v2.722H174.04z"/>
	</g>
</g>
</svg>
