<svg xmlns="http://www.w3.org/2000/svg" xmlns:xlink="http://www.w3.org/1999/xlink" width="60" height="33" viewBox="0 0 60 33">
    <defs>
        <path id="a" d="M32.44 19.956c-4.988 0-14.972 2.495-14.972 7.489v4.988h29.943v-4.988c0-4.994-9.981-7.489-14.971-7.489zm16.522.402c2.068 1.808 3.443 4.14 3.443 7.087v4.988h7.483v-4.988c0-3.845-5.926-6.202-10.926-7.087zm-16.522-5.39c4.128 0 7.462-3.357 7.462-7.485S36.567 0 32.44 0s-7.487 3.355-7.487 7.483 3.358 7.485 7.487 7.485zm12.477 0c4.131 0 7.461-3.357 7.461-7.485S49.048 0 44.916 0a7.27 7.27 0 0 0-2.283.361 12.413 12.413 0 0 1 2.258 7.122c0 2.645-.846 5.103-2.258 7.123a7.317 7.317 0 0 0 2.283.362zm-24.954-2.495h-7.487V4.99h-4.99v7.483H0v4.988h7.487v7.489h4.99V17.46h7.486v-4.988z"/>
    </defs>
    <g fill="none" fill-rule="evenodd">
        <path d="M0-13h60v60H0z"/>
        <g transform="translate(0 .333)">
            <mask id="b" fill="#fff">
                <use xlink:href="#a"/>
            </mask>
            <use fill="#00B2A9" xlink:href="#a"/>
            <g fill="#00B2A9" mask="url(#b)">
                <path d="M0-13.333h60v60H0z"/>
            </g>
        </g>
    </g>
</svg>